<svg width="184.096680" height="54.931641" viewBox="0 0 184.097 54.9316" fill="none" xmlns="http://www.w3.org/2000/svg" xmlns:xlink="http://www.w3.org/1999/xlink">
	<desc>
			Created with Pixso.
	</desc>
	<defs/>
	<path id="Rikale" d="M98.85 54.14C95.76 54.14 95.39 53.85 91.87 47.88C86.97 39.74 84.39 35.41 83.51 33.9L90.13 24.62C94.46 18.58 95.25 18.58 98.48 18.58L98.85 18.07L89.64 18.07L89.34 18.58L89.45 18.58C92.53 18.57 93.34 18.57 89.06 24.62L75.81 43.34L75.81 0L75.39 0C73.65 2.37 69.18 4.18 65.01 4.18L65.01 4.6C67.67 4.6 67.67 4.6 67.67 10.74L67.67 47.88C67.67 54.07 66.81 54.14 63.64 54.14L63.64 54.58L79.85 54.58L79.85 54.14C76.83 54.14 75.81 54.14 75.81 47.88L75.81 44.78L79.69 39.32L83.74 47.88C86.69 54.14 85.74 54.14 82.65 54.14L82.87 54.58L99.06 54.58L98.85 54.14ZM147.74 47.88L147.74 0L147.31 0C145.57 2.37 141.11 4.18 136.94 4.18L136.94 4.6C139.53 4.6 139.6 4.6 139.6 10.74L139.6 47.88C139.6 54.07 138.74 54.14 135.57 54.14L135.57 54.58L151.78 54.58L151.78 54.14C148.75 54.14 147.74 54.14 147.74 47.88ZM16.2 54.14C12.95 54.14 12.16 54.14 12.16 48.09L12.16 31.53L22.02 31.53L29.37 47.88C32.18 54.14 31.32 54.14 28.14 54.14L28.37 54.58L44.56 54.58L44.34 54.14C41.32 54.14 40.67 53.92 37.51 47.88C32.25 37.81 29.58 32.32 29.09 31.25C37.3 30.53 44.56 27.72 44.56 17.34C44.56 4.13 32.93 4.16 22.36 4.18C21.93 4.18 21.51 4.18 21.09 4.18L0 4.18L0 4.67C3.16 4.67 4.02 4.67 4.02 10.88L4.02 48.09C4.02 54.14 3.16 54.14 0 54.14L0 54.58L16.2 54.58L16.2 54.14ZM12.16 10.88C12.16 4.67 13.16 4.67 16.1 4.67L16.2 4.67L21.09 4.67C28.44 4.67 36.58 4.67 36.58 17.34C36.58 30.09 28.79 31.04 21.09 31.04L12.16 31.04L12.16 10.88ZM59.03 11.23C59.03 14.11 56.66 16.41 53.84 16.41C50.98 16.41 48.67 14.11 48.67 11.23C48.67 8.34 50.98 6.04 53.84 6.04C56.66 6.04 59.03 8.34 59.03 11.23ZM159.76 38.81C159.76 44.5 160.77 54.43 169.91 54.43C179.56 54.43 180 44.64 180 41.83L184.02 49.39C184.02 49.39 181.37 54.93 169.91 54.93C157.67 54.93 151.77 48.67 151.7 36.5C151.56 18.14 166.97 17.71 167.83 17.71C178.77 17.78 184.09 22.97 184.09 29.44C184.09 37.81 177.62 39.25 170.56 39.25C166.81 39.25 162.93 38.81 159.76 38.81ZM116.56 17.92C128.81 17.92 130.02 24.27 130.02 28.23L130.02 47.88C130.02 54.07 131.04 54.14 134.14 54.14L134.14 54.58L121.96 54.58L121.96 51.9C119.65 53.78 116.7 54.86 113.9 54.86C105.12 54.86 97.63 53.41 97.63 45.07C97.63 34.62 112.89 29.53 121.81 25.99C121.39 21.09 119.58 18.29 115.56 18.29C106.9 18.29 107.02 27.13 107.06 30.53C107.06 30.75 107.07 30.94 107.07 31.11L102.16 23.69C102.16 23.69 105.12 17.92 116.56 17.92ZM57.75 18.07L58.17 18.07L58.17 47.88C58.17 54.14 59.19 54.14 62.21 54.14L62.21 54.58L46 54.58L46 54.14C49.17 54.14 50.03 54.14 50.03 47.88L50.03 27.65C50.03 21.6 49.17 21.6 46 21.6L46 21.09C50.19 21.09 55.07 20.6 57.75 18.07ZM167.83 18.22C160.91 18.22 159.76 25.62 159.76 34.92L159.76 38.44C167.67 38.44 175.88 38.02 175.88 29.37C175.88 17.78 167.83 18.22 167.83 18.22ZM105.84 44.2C105.84 50.18 107.86 54.22 113.83 54.22C120.74 54.22 121.96 48.09 121.96 45.58L121.96 28.51C121.96 27.86 121.96 27.29 121.89 26.71C113.97 30.16 105.84 33.99 105.84 44.2Z" fill="#302B27" fill-opacity="1.000000" fill-rule="evenodd"/>
</svg>
