<svg width="41" height="40" viewBox="0 0 41 40" fill="none" xmlns="http://www.w3.org/2000/svg">
<mask id="mask0_217_173" style="mask-type:luminance" maskUnits="userSpaceOnUse" x="0" y="0" width="41" height="40">
<path d="M40.5488 0H0.548828V40H40.5488V0Z" fill="white"/>
</mask>
<g mask="url(#mask0_217_173)">
<mask id="mask1_217_173" style="mask-type:alpha" maskUnits="userSpaceOnUse" x="0" y="0" width="41" height="40">
<path d="M40.5488 0H0.548828V40H40.5488V0Z" fill="black"/>
</mask>
<g mask="url(#mask1_217_173)">
<path d="M40.5488 20C40.5488 25.3 38.4388 30.3799 34.6888 34.1299C30.9388 37.8799 25.8488 40 20.5488 40C15.2488 40 10.1588 37.8799 6.40881 34.1299C2.65881 30.3799 0.548828 25.3 0.548828 20C0.548828 14.7 2.65881 9.61035 6.40881 5.86035C10.1588 2.11035 15.2488 0 20.5488 0C25.8488 0 30.9388 2.11035 34.6888 5.86035C38.4388 9.61035 40.5488 14.7 40.5488 20ZM21.2688 14.7598C19.3188 15.5798 15.4289 17.25 9.59888 19.79C8.65888 20.17 8.15877 20.5399 8.11877 20.8799C8.03877 21.4999 8.79887 21.7403 9.83887 22.0703L10.2788 22.21C11.2988 22.54 12.6688 22.9304 13.3788 22.9404C14.0388 22.9604 14.7588 22.6899 15.5488 22.1299C20.9988 18.4599 23.8088 16.6103 23.9888 16.5703C24.1188 16.5403 24.2888 16.5004 24.4088 16.6104C24.5188 16.7104 24.5088 16.91 24.4988 16.96C24.4188 17.28 21.4288 20.05 19.8788 21.5C19.3988 21.95 19.0588 22.2598 18.9888 22.3398C18.8288 22.4998 18.6788 22.6598 18.5188 22.7998C17.5688 23.7198 16.8588 24.4103 18.5488 25.5303C19.3688 26.0703 20.0288 26.51 20.6788 26.96C21.3888 27.44 22.0988 27.9203 23.0188 28.5303C23.2488 28.6803 23.4788 28.84 23.6888 29C24.5188 29.58 25.2688 30.1203 26.1888 30.0303C26.7188 29.9803 27.2688 29.4805 27.5488 27.9805C28.2188 24.4405 29.5188 16.7598 29.8188 13.5898C29.8388 13.3398 29.8288 13.0798 29.7888 12.7998C29.7588 12.6098 29.6588 12.4098 29.4988 12.2598C29.2688 12.1198 28.9989 12.03 28.7289 12.04C27.9789 12.05 26.8188 12.4598 21.2688 14.7598Z" fill="#8CAEF5"/>
</g>
</g>
</svg>
